<?xml version="1.0" encoding="UTF-8" standalone="no"?>
<!DOCTYPE svg PUBLIC "-//W3C//DTD SVG 1.1//EN"
 "http://www.w3.org/Graphics/SVG/1.1/DTD/svg11.dtd">
<!-- Generated by graphviz version 11.0.0 (20240428.1522)
 -->
<!-- Title: G Pages: 1 -->
<svg width="746pt" height="133pt"
 viewBox="0.00 0.00 745.67 132.50" xmlns="http://www.w3.org/2000/svg" xmlns:xlink="http://www.w3.org/1999/xlink">
<g id="graph0" class="graph" transform="scale(1 1) rotate(0) translate(4 128.5)">
<title>G</title>
<polygon fill="white" stroke="none" points="-4,4 -4,-128.5 741.67,-128.5 741.67,4 -4,4"/>
<!-- ruleplatform.(*Event).ExecuteOptimized -->
<g id="node1" class="node">
<title>ruleplatform.(*Event).ExecuteOptimized</title>
<ellipse fill="none" stroke="black" cx="294.64" cy="-106.5" rx="163.95" ry="18"/>
<text text-anchor="middle" x="294.64" y="-101.45" font-family="Times,serif" font-size="14.00">ruleplatform.(*Event).ExecuteOptimized</text>
</g>
<!-- ruleplatform.(*Event).getEventExecStatus -->
<g id="node2" class="node">
<title>ruleplatform.(*Event).getEventExecStatus</title>
<ellipse fill="none" stroke="black" cx="258.64" cy="-18" rx="168.56" ry="18"/>
<text text-anchor="middle" x="258.64" y="-12.95" font-family="Times,serif" font-size="14.00">ruleplatform.(*Event).getEventExecStatus</text>
</g>
<!-- ruleplatform.(*Event).ExecuteOptimized&#45;&gt;ruleplatform.(*Event).getEventExecStatus -->
<g id="edge1" class="edge">
<title>ruleplatform.(*Event).ExecuteOptimized&#45;&gt;ruleplatform.(*Event).getEventExecStatus</title>
<g id="a_edge1"><a xlink:title="{&#10; &#160;&#160;&#160;&quot;arguments&quot;: &quot;{\&quot;ut\&quot;:12}}&quot;,&#10; &#160;&#160;&#160;&quot;result&quot;: &quot;{\&quot;X1\&quot;:1}&quot;&#10;}">
<path fill="none" stroke="black" d="M154.37,-96.9C85.21,-91.19 14.29,-82.52 3.64,-70.5 -1.23,-65.01 -1.18,-59.53 3.64,-54 16.39,-39.38 49.83,-30.65 88.46,-25.5"/>
<polygon fill="black" stroke="black" points="88.48,-29.02 97.98,-24.32 87.62,-22.07 88.48,-29.02"/>
</a>
</g>
<text text-anchor="middle" x="24.64" y="-57.2" font-family="Times,serif" font-size="14.00">call9[1]</text>
</g>
<!-- ruleplatform.(*Event).ExecuteOptimized&#45;&gt;ruleplatform.(*Event).getEventExecStatus -->
<g id="edge2" class="edge">
<title>ruleplatform.(*Event).ExecuteOptimized&#45;&gt;ruleplatform.(*Event).getEventExecStatus</title>
<g id="a_edge2"><a xlink:title="{&#10; &#160;&#160;&#160;&quot;arguments&quot;: &quot;{\&quot;ut\&quot;:12}}&quot;,&#10; &#160;&#160;&#160;&quot;result&quot;: &quot;{\&quot;X1\&quot;:1}&quot;&#10;}">
<path fill="none" stroke="black" d="M149.56,-97.84C112.88,-92.74 80.49,-84.33 68.64,-70.5 63.87,-64.93 63.95,-59.64 68.64,-54 76.69,-44.33 96.33,-37.33 120.09,-32.25"/>
<polygon fill="black" stroke="black" points="120.64,-35.71 129.78,-30.34 119.29,-28.84 120.64,-35.71"/>
</a>
</g>
<text text-anchor="middle" x="89.64" y="-57.2" font-family="Times,serif" font-size="14.00">call9[2]</text>
</g>
<!-- ruleplatform.(*Event).ExecuteOptimized&#45;&gt;ruleplatform.(*Event).getEventExecStatus -->
<g id="edge3" class="edge">
<title>ruleplatform.(*Event).ExecuteOptimized&#45;&gt;ruleplatform.(*Event).getEventExecStatus</title>
<g id="a_edge3"><a xlink:title="{&#10; &#160;&#160;&#160;&quot;arguments&quot;: &quot;{\&quot;ut\&quot;:12}}&quot;,&#10; &#160;&#160;&#160;&quot;result&quot;: &quot;{\&quot;X1\&quot;:1}&quot;&#10;}">
<path fill="none" stroke="black" d="M186.99,-92.55C162.54,-87.33 141.45,-80.19 133.64,-70.5 121.27,-55.16 130.46,-44.34 148.4,-36.73"/>
<polygon fill="black" stroke="black" points="149.55,-40.03 157.76,-33.34 147.16,-33.45 149.55,-40.03"/>
</a>
</g>
<text text-anchor="middle" x="154.64" y="-57.2" font-family="Times,serif" font-size="14.00">call9[3]</text>
</g>
<!-- ruleplatform.(*Event).ExecuteOptimized&#45;&gt;ruleplatform.(*Event).getEventExecStatus -->
<g id="edge4" class="edge">
<title>ruleplatform.(*Event).ExecuteOptimized&#45;&gt;ruleplatform.(*Event).getEventExecStatus</title>
<g id="a_edge4"><a xlink:title="{&#10; &#160;&#160;&#160;&quot;arguments&quot;: &quot;{\&quot;ut\&quot;:12}}&quot;,&#10; &#160;&#160;&#160;&quot;result&quot;: &quot;{\&quot;X1\&quot;:1}&quot;&#10;}">
<path fill="none" stroke="black" d="M221.31,-89.95C212.41,-85.12 204.44,-78.78 198.64,-70.5 191.19,-59.85 197.45,-50.03 208.31,-41.89"/>
<polygon fill="black" stroke="black" points="210.07,-44.93 216.56,-36.56 206.26,-39.05 210.07,-44.93"/>
</a>
</g>
<text text-anchor="middle" x="219.64" y="-57.2" font-family="Times,serif" font-size="14.00">call9[4]</text>
</g>
<!-- ruleplatform.(*Event).ExecuteOptimized&#45;&gt;ruleplatform.(*Event).getEventExecStatus -->
<g id="edge5" class="edge">
<title>ruleplatform.(*Event).ExecuteOptimized&#45;&gt;ruleplatform.(*Event).getEventExecStatus</title>
<g id="a_edge5"><a xlink:title="{&#10; &#160;&#160;&#160;&quot;arguments&quot;: &quot;{\&quot;ut\&quot;:12}}&quot;,&#10; &#160;&#160;&#160;&quot;result&quot;: &quot;{\&quot;X1\&quot;:1}&quot;&#10;}">
<path fill="none" stroke="black" d="M275.47,-88.16C270.84,-82.95 266.43,-76.9 263.64,-70.5 260.58,-63.47 259,-55.41 258.26,-47.78"/>
<polygon fill="black" stroke="black" points="261.76,-47.69 257.77,-37.88 254.77,-48.04 261.76,-47.69"/>
</a>
</g>
<text text-anchor="middle" x="284.64" y="-57.2" font-family="Times,serif" font-size="14.00">call9[5]</text>
</g>
<!-- ruleplatform.(*Event).ExecuteOptimized&#45;&gt;ruleplatform.(*Event).getEventExecStatus -->
<g id="edge6" class="edge">
<title>ruleplatform.(*Event).ExecuteOptimized&#45;&gt;ruleplatform.(*Event).getEventExecStatus</title>
<g id="a_edge6"><a xlink:title="{&#10; &#160;&#160;&#160;&quot;arguments&quot;: &quot;{\&quot;ut\&quot;:12}}&quot;,&#10; &#160;&#160;&#160;&quot;result&quot;: &quot;{\&quot;X1\&quot;:1}&quot;&#10;}">
<path fill="none" stroke="black" d="M303.89,-88.07C308.05,-77.74 310.97,-64.62 305.64,-54 303.75,-50.23 301.24,-46.77 298.36,-43.61"/>
<polygon fill="black" stroke="black" points="300.88,-41.17 291.16,-36.97 296.14,-46.32 300.88,-41.17"/>
</a>
</g>
<text text-anchor="middle" x="328.64" y="-57.2" font-family="Times,serif" font-size="14.00">call9[6]</text>
</g>
<!-- ruleplatform.(*Event).ExecuteOptimized&#45;&gt;ruleplatform.(*Event).getEventExecStatus -->
<g id="edge7" class="edge">
<title>ruleplatform.(*Event).ExecuteOptimized&#45;&gt;ruleplatform.(*Event).getEventExecStatus</title>
<g id="a_edge7"><a xlink:title="{&#10; &#160;&#160;&#160;&quot;arguments&quot;: &quot;{\&quot;ut\&quot;:12}}&quot;,&#10; &#160;&#160;&#160;&quot;result&quot;: &quot;{\&quot;X1\&quot;:1}&quot;&#10;}">
<path fill="none" stroke="black" d="M334.8,-88.67C350.59,-79.54 362.97,-67.38 353.64,-54 350.06,-48.86 345.63,-44.48 340.67,-40.74"/>
<polygon fill="black" stroke="black" points="342.8,-37.94 332.49,-35.49 339.02,-43.83 342.8,-37.94"/>
</a>
</g>
<text text-anchor="middle" x="377.64" y="-57.2" font-family="Times,serif" font-size="14.00">call9[7]</text>
</g>
<!-- ruleplatform.(*Event).ExecuteOptimized&#45;&gt;ruleplatform.(*Event).getEventExecStatus -->
<g id="edge8" class="edge">
<title>ruleplatform.(*Event).ExecuteOptimized&#45;&gt;ruleplatform.(*Event).getEventExecStatus</title>
<g id="a_edge8"><a xlink:title="{&#10; &#160;&#160;&#160;&quot;arguments&quot;: &quot;{\&quot;ut\&quot;:12}}&quot;,&#10; &#160;&#160;&#160;&quot;result&quot;: &quot;{\&quot;X1\&quot;:1}&quot;&#10;}">
<path fill="none" stroke="black" d="M377.77,-90.56C400.67,-82.67 415.99,-70.98 402.64,-54 396.91,-46.71 383,-40.76 365.97,-35.96"/>
<polygon fill="black" stroke="black" points="367.03,-32.62 356.47,-33.5 365.27,-39.39 367.03,-32.62"/>
</a>
</g>
<text text-anchor="middle" x="427.64" y="-57.2" font-family="Times,serif" font-size="14.00">call9[8]</text>
</g>
<!-- ruleplatform.(*Event).ExecuteOptimized&#45;&gt;ruleplatform.(*Event).getEventExecStatus -->
<g id="edge9" class="edge">
<title>ruleplatform.(*Event).ExecuteOptimized&#45;&gt;ruleplatform.(*Event).getEventExecStatus</title>
<g id="a_edge9"><a xlink:title="{&#10; &#160;&#160;&#160;&quot;arguments&quot;: &quot;{\&quot;ut\&quot;:12}}&quot;,&#10; &#160;&#160;&#160;&quot;result&quot;: &quot;{\&quot;X1\&quot;:1}&quot;&#10;}">
<path fill="none" stroke="black" d="M423.91,-95.08C452.8,-87.68 470.31,-75.14 452.64,-54 444.37,-44.11 424.16,-37 399.76,-31.91"/>
<polygon fill="black" stroke="black" points="400.64,-28.51 390.16,-30.06 399.32,-35.39 400.64,-28.51"/>
</a>
</g>
<text text-anchor="middle" x="480.64" y="-57.2" font-family="Times,serif" font-size="14.00">call9[9]</text>
</g>
<!-- ruleplatform.(*Event).getEventExec -->
<g id="node3" class="node">
<title>ruleplatform.(*Event).getEventExec</title>
<ellipse fill="none" stroke="black" cx="591.64" cy="-18" rx="146.04" ry="18"/>
<text text-anchor="middle" x="591.64" y="-12.95" font-family="Times,serif" font-size="14.00">ruleplatform.(*Event).getEventExec</text>
</g>
<!-- ruleplatform.(*Event).ExecuteOptimized&#45;&gt;ruleplatform.(*Event).getEventExec -->
<g id="edge10" class="edge">
<title>ruleplatform.(*Event).ExecuteOptimized&#45;&gt;ruleplatform.(*Event).getEventExec</title>
<g id="a_edge10"><a xlink:title="{&#10; &#160;&#160;&#160;&quot;arguments&quot;: &quot;{\&quot;ut\&quot;:12}}&quot;,&#10; &#160;&#160;&#160;&quot;result&quot;: &quot;{\&quot;X1\&quot;:1}&quot;&#10;}">
<path fill="none" stroke="black" d="M413.57,-93.76C444.16,-88.58 476.62,-81.16 505.64,-70.5 524.44,-63.59 543.72,-52.49 559.25,-42.35"/>
<polygon fill="black" stroke="black" points="560.79,-45.54 567.14,-37.06 556.89,-39.72 560.79,-45.54"/>
</a>
</g>
<text text-anchor="middle" x="558.64" y="-57.2" font-family="Times,serif" font-size="14.00">call1[1]</text>
</g>
</g>
</svg>
