<?xml version="1.0" encoding="UTF-8" standalone="no"?>
<!DOCTYPE svg PUBLIC "-//W3C//DTD SVG 1.1//EN"
 "http://www.w3.org/Graphics/SVG/1.1/DTD/svg11.dtd">
<!-- Generated by graphviz version 11.0.0 (20240428.1522)
 -->
<!-- Title: G Pages: 1 -->
<svg width="680pt" height="127pt"
 viewBox="0.00 0.00 680.25 127.25" xmlns="http://www.w3.org/2000/svg" xmlns:xlink="http://www.w3.org/1999/xlink">
<g id="graph0" class="graph" transform="scale(1 1) rotate(0) translate(4 123.25)">
<title>G</title>
<polygon fill="white" stroke="none" points="-4,4 -4,-123.25 676.25,-123.25 676.25,4 -4,4"/>
<!-- ruleplatform.(*Event).ExecuteOptimized -->
<g id="node1" class="node">
<title>ruleplatform.(*Event).ExecuteOptimized</title>
<ellipse fill="none" stroke="black" cx="248.21" cy="-101.25" rx="163.95" ry="18"/>
<text text-anchor="middle" x="248.21" y="-96.2" font-family="Times,serif" font-size="14.00">ruleplatform.(*Event).ExecuteOptimized</text>
</g>
<!-- ruleplatform.(*Event).getEventExecStatus -->
<g id="node2" class="node">
<title>ruleplatform.(*Event).getEventExecStatus</title>
<ellipse fill="none" stroke="black" cx="193.21" cy="-18" rx="168.56" ry="18"/>
<text text-anchor="middle" x="193.21" y="-12.95" font-family="Times,serif" font-size="14.00">ruleplatform.(*Event).getEventExecStatus</text>
</g>
<!-- ruleplatform.(*Event).ExecuteOptimized&#45;&gt;ruleplatform.(*Event).getEventExecStatus -->
<g id="edge1" class="edge">
<title>ruleplatform.(*Event).ExecuteOptimized&#45;&gt;ruleplatform.(*Event).getEventExecStatus</title>
<g id="a_edge1"><a xlink:title="{&#10; &#160;&#160;&#160;&quot;arguments&quot;: &quot;{\&quot;ut\&quot;:12}}&quot;,&#10; &#160;&#160;&#160;&quot;result&quot;: &quot;{\&quot;X1\&quot;:1}&quot;&#10;}">
<path fill="none" stroke="black" stroke-width="2" d="M95.28,-94.5C53.57,-89.55 16.15,-80.74 2.71,-65.25 -9.36,-51.33 22.87,-40.91 64.09,-33.52"/>
<polygon fill="black" stroke="black" stroke-width="2" points="64.57,-36.99 73.84,-31.87 63.4,-30.09 64.57,-36.99"/>
</a>
</g>
<text text-anchor="middle" x="18.96" y="-55.75" font-family="Times,serif" font-size="10.00">call9[1]</text>
</g>
<!-- ruleplatform.(*Event).ExecuteOptimized&#45;&gt;ruleplatform.(*Event).getEventExecStatus -->
<g id="edge2" class="edge">
<title>ruleplatform.(*Event).ExecuteOptimized&#45;&gt;ruleplatform.(*Event).getEventExecStatus</title>
<g id="a_edge2"><a xlink:title="{&#10; &#160;&#160;&#160;&quot;arguments&quot;: &quot;{\&quot;ut\&quot;:12}}&quot;,&#10; &#160;&#160;&#160;&quot;result&quot;: &quot;{\&quot;X1\&quot;:1}&quot;&#10;}">
<path fill="none" stroke="black" stroke-width="2" d="M122,-89.5C92.65,-84.31 67.18,-76.62 57.71,-65.25 46.96,-52.34 51.33,-43.03 63.58,-36.31"/>
<polygon fill="black" stroke="black" stroke-width="2" points="64.93,-39.54 72.78,-32.43 62.21,-33.09 64.93,-39.54"/>
</a>
</g>
<text text-anchor="middle" x="73.96" y="-55.75" font-family="Times,serif" font-size="10.00">call9[2]</text>
</g>
<!-- ruleplatform.(*Event).ExecuteOptimized&#45;&gt;ruleplatform.(*Event).getEventExecStatus -->
<g id="edge3" class="edge">
<title>ruleplatform.(*Event).ExecuteOptimized&#45;&gt;ruleplatform.(*Event).getEventExecStatus</title>
<g id="a_edge3"><a xlink:title="{&#10; &#160;&#160;&#160;&quot;arguments&quot;: &quot;{\&quot;ut\&quot;:12}}&quot;,&#10; &#160;&#160;&#160;&quot;result&quot;: &quot;{\&quot;X1\&quot;:1}&quot;&#10;}">
<path fill="none" stroke="black" stroke-width="2" d="M158.55,-85.82C137.52,-80.56 119.3,-73.75 112.71,-65.25 105.24,-55.6 109.23,-47.62 118.55,-41.15"/>
<polygon fill="black" stroke="black" stroke-width="2" points="120.17,-44.26 127.28,-36.41 116.82,-38.11 120.17,-44.26"/>
</a>
</g>
<text text-anchor="middle" x="128.96" y="-55.75" font-family="Times,serif" font-size="10.00">call9[3]</text>
</g>
<!-- ruleplatform.(*Event).ExecuteOptimized&#45;&gt;ruleplatform.(*Event).getEventExecStatus -->
<g id="edge4" class="edge">
<title>ruleplatform.(*Event).ExecuteOptimized&#45;&gt;ruleplatform.(*Event).getEventExecStatus</title>
<g id="a_edge4"><a xlink:title="{&#10; &#160;&#160;&#160;&quot;arguments&quot;: &quot;{\&quot;ut\&quot;:12}}&quot;,&#10; &#160;&#160;&#160;&quot;result&quot;: &quot;{\&quot;X1\&quot;:1}&quot;&#10;}">
<path fill="none" stroke="black" stroke-width="2" d="M188.52,-84.03C180.29,-79.28 172.9,-73.15 167.71,-65.25 163.88,-59.4 164.59,-52.94 167.48,-46.74"/>
<polygon fill="black" stroke="black" stroke-width="2" points="170.28,-48.86 172.86,-38.59 164.43,-45.01 170.28,-48.86"/>
</a>
</g>
<text text-anchor="middle" x="183.96" y="-55.75" font-family="Times,serif" font-size="10.00">call9[4]</text>
</g>
<!-- ruleplatform.(*Event).ExecuteOptimized&#45;&gt;ruleplatform.(*Event).getEventExecStatus -->
<g id="edge5" class="edge">
<title>ruleplatform.(*Event).ExecuteOptimized&#45;&gt;ruleplatform.(*Event).getEventExecStatus</title>
<g id="a_edge5"><a xlink:title="{&#10; &#160;&#160;&#160;&quot;arguments&quot;: &quot;{\&quot;ut\&quot;:12}}&quot;,&#10; &#160;&#160;&#160;&quot;result&quot;: &quot;{\&quot;X1\&quot;:1}&quot;&#10;}">
<path fill="none" stroke="black" stroke-width="2" d="M235.29,-82.95C231.19,-77.36 226.7,-71.09 222.71,-65.25 218.79,-59.5 214.7,-53.26 210.86,-47.28"/>
<polygon fill="black" stroke="black" stroke-width="2" points="213.83,-45.42 205.51,-38.85 207.92,-49.17 213.83,-45.42"/>
</a>
</g>
<text text-anchor="middle" x="237.96" y="-55.75" font-family="Times,serif" font-size="10.00">call9[5]</text>
</g>
<!-- ruleplatform.(*Event).ExecuteOptimized&#45;&gt;ruleplatform.(*Event).getEventExecStatus -->
<g id="edge6" class="edge">
<title>ruleplatform.(*Event).ExecuteOptimized&#45;&gt;ruleplatform.(*Event).getEventExecStatus</title>
<g id="a_edge6"><a xlink:title="{&#10; &#160;&#160;&#160;&quot;arguments&quot;: &quot;{\&quot;ut\&quot;:12}}&quot;,&#10; &#160;&#160;&#160;&quot;result&quot;: &quot;{\&quot;X1\&quot;:1}&quot;&#10;}">
<path fill="none" stroke="black" stroke-width="2" d="M255.37,-82.97C258,-73.81 259.25,-62.69 254.21,-54 252.07,-50.3 249.38,-46.96 246.32,-43.95"/>
<polygon fill="black" stroke="black" stroke-width="2" points="248.59,-41.29 238.6,-37.76 244.21,-46.75 248.59,-41.29"/>
</a>
</g>
<text text-anchor="middle" x="272.96" y="-55.75" font-family="Times,serif" font-size="10.00">call9[6]</text>
</g>
<!-- ruleplatform.(*Event).ExecuteOptimized&#45;&gt;ruleplatform.(*Event).getEventExecStatus -->
<g id="edge7" class="edge">
<title>ruleplatform.(*Event).ExecuteOptimized&#45;&gt;ruleplatform.(*Event).getEventExecStatus</title>
<g id="a_edge7"><a xlink:title="{&#10; &#160;&#160;&#160;&quot;arguments&quot;: &quot;{\&quot;ut\&quot;:12}}&quot;,&#10; &#160;&#160;&#160;&quot;result&quot;: &quot;{\&quot;X1\&quot;:1}&quot;&#10;}">
<path fill="none" stroke="black" stroke-width="2" d="M280.92,-83.18C292.35,-74.91 300.67,-64.51 293.21,-54 289.77,-49.14 285.6,-44.96 280.93,-41.34"/>
<polygon fill="black" stroke="black" stroke-width="2" points="282.89,-38.44 272.58,-35.97 279.09,-44.32 282.89,-38.44"/>
</a>
</g>
<text text-anchor="middle" x="310.96" y="-55.75" font-family="Times,serif" font-size="10.00">call9[7]</text>
</g>
<!-- ruleplatform.(*Event).ExecuteOptimized&#45;&gt;ruleplatform.(*Event).getEventExecStatus -->
<g id="edge8" class="edge">
<title>ruleplatform.(*Event).ExecuteOptimized&#45;&gt;ruleplatform.(*Event).getEventExecStatus</title>
<g id="a_edge8"><a xlink:title="{&#10; &#160;&#160;&#160;&quot;arguments&quot;: &quot;{\&quot;ut\&quot;:12}}&quot;,&#10; &#160;&#160;&#160;&quot;result&quot;: &quot;{\&quot;X1\&quot;:1}&quot;&#10;}">
<path fill="none" stroke="black" stroke-width="2" d="M313.9,-84.38C330.68,-77.12 341.45,-67.15 331.21,-54 325.92,-47.2 313.28,-41.51 297.67,-36.82"/>
<polygon fill="black" stroke="black" stroke-width="2" points="298.73,-33.48 288.16,-34.23 296.89,-40.24 298.73,-33.48"/>
</a>
</g>
<text text-anchor="middle" x="349.96" y="-55.75" font-family="Times,serif" font-size="10.00">call9[8]</text>
</g>
<!-- ruleplatform.(*Event).ExecuteOptimized&#45;&gt;ruleplatform.(*Event).getEventExecStatus -->
<g id="edge9" class="edge">
<title>ruleplatform.(*Event).ExecuteOptimized&#45;&gt;ruleplatform.(*Event).getEventExecStatus</title>
<g id="a_edge9"><a xlink:title="{&#10; &#160;&#160;&#160;&quot;arguments&quot;: &quot;{\&quot;ut\&quot;:12}}&quot;,&#10; &#160;&#160;&#160;&quot;result&quot;: &quot;{\&quot;X1\&quot;:1}&quot;&#10;}">
<path fill="none" stroke="black" stroke-width="2" d="M351.91,-87C371.92,-80.14 383.16,-69.75 370.21,-54 363.07,-45.3 345.97,-38.73 325.09,-33.77"/>
<polygon fill="black" stroke="black" stroke-width="2" points="325.87,-30.36 315.36,-31.67 324.4,-37.2 325.87,-30.36"/>
</a>
</g>
<text text-anchor="middle" x="390.96" y="-55.75" font-family="Times,serif" font-size="10.00">call9[9]</text>
</g>
<!-- ruleplatform.(*Event).getEventExec -->
<g id="node3" class="node">
<title>ruleplatform.(*Event).getEventExec</title>
<ellipse fill="none" stroke="black" cx="526.21" cy="-18" rx="146.04" ry="18"/>
<text text-anchor="middle" x="526.21" y="-12.95" font-family="Times,serif" font-size="14.00">ruleplatform.(*Event).getEventExec</text>
</g>
<!-- ruleplatform.(*Event).ExecuteOptimized&#45;&gt;ruleplatform.(*Event).getEventExec -->
<g id="edge10" class="edge">
<title>ruleplatform.(*Event).ExecuteOptimized&#45;&gt;ruleplatform.(*Event).getEventExec</title>
<g id="a_edge10"><a xlink:title="{&#10; &#160;&#160;&#160;&quot;arguments&quot;: &quot;{\&quot;ut\&quot;:12}}&quot;,&#10; &#160;&#160;&#160;&quot;result&quot;: &quot;{\&quot;X1\&quot;:1}&quot;&#10;}">
<path fill="none" stroke="black" stroke-width="2" d="M331,-85.33C356.93,-79.9 385.48,-73.13 411.21,-65.25 433.3,-58.49 457.08,-49.27 477.25,-40.84"/>
<polygon fill="black" stroke="black" stroke-width="2" points="478.36,-44.17 486.2,-37.04 475.63,-37.73 478.36,-44.17"/>
</a>
</g>
<text text-anchor="middle" x="458.96" y="-55.75" font-family="Times,serif" font-size="10.00">call1[1]</text>
</g>
</g>
</svg>
